<svg width="14" height="9" fill="none" xmlns="http://www.w3.org/2000/svg"><path d="M.868.63a1.52 1.52 0 0 0-.517.465c-.038.06-.087.175-.108.257a.442.442 0 0 0-.001.296c.02.081.072.203.116.271.047.072 1.349 1.389 3.134 3.171C6.909 8.501 6.656 8.272 7 8.272c.344 0 .091.229 3.507-3.182 1.678-1.677 3.088-3.103 3.133-3.17a1.02 1.02 0 0 0 .118-.27.442.442 0 0 0-.001-.298c-.049-.188-.138-.327-.328-.509-.295-.284-.584-.352-.894-.212-.15.068-.273.187-2.846 2.759L7 6.078 4.311 3.39C1.738.818 1.615.699 1.465.631A.655.655 0 0 0 .868.63" fill-rule="evenodd" fill="#000"/></svg>