<svg width="20" height="14" fill="none" xmlns="http://www.w3.org/2000/svg"><path d="M12.683.33a.74.74 0 0 0-.357.973c.05.111.657.736 2.454 2.53 1.313 1.311 2.387 2.395 2.387 2.409 0 .013-3.683.025-8.185.025-7.988 0-8.188.001-8.308.063A.75.75 0 0 0 .256 7c0 .286.154.531.427.678l.134.072 8.182.009 8.183.008-2.421 2.425c-2.588 2.593-2.508 2.502-2.503 2.829a.821.821 0 0 0 .229.519c.218.204.582.263.83.134.082-.043 1.322-1.261 3.238-3.18C19.848 7.195 19.742 7.31 19.742 7c0-.31.106-.195-3.187-3.495C14.418 1.363 13.408.374 13.317.331a.853.853 0 0 0-.634-.001" fill="#fff" fill-rule="evenodd"/></svg>