<svg width="24" height="21" fill="none" xmlns="http://www.w3.org/2000/svg"><path d="M6.64.348C4.748.55 2.935 1.642 1.874 3.218.606 5.101.386 7.481 1.261 9.867c.194.53.715 1.579 1.039 2.091 1.765 2.792 4.73 5.334 9.05 7.758l.65.365.51-.287c4.06-2.284 6.815-4.522 8.623-7.005 2.442-3.353 2.81-6.853 1.004-9.549C21.172 1.798 19.69.811 17.932.439c-.513-.108-1.55-.149-2.061-.081a6.838 6.838 0 0 0-3.621 1.663l-.25.224-.25-.224A6.821 6.821 0 0 0 8.26.377C7.935.327 6.994.31 6.64.348m1.53 1.831a4.993 4.993 0 0 1 1.798.728c.571.383.939.75 1.649 1.644.196.247.368.449.383.449.014 0 .222-.248.463-.55.735-.926 1.302-1.435 2.004-1.801.418-.217 1.064-.431 1.488-.492.465-.066 1.415-.026 1.805.077 1.9.501 3.218 1.875 3.63 3.784.106.49.093 1.584-.025 2.142-.583 2.744-2.775 5.453-6.565 8.111-.84.589-2.687 1.729-2.801 1.729-.082 0-1.347-.764-2.219-1.34-4.108-2.712-6.634-5.744-7.166-8.6-.1-.54-.102-1.585-.004-2.042.443-2.06 1.994-3.535 4.07-3.871.259-.042 1.179-.022 1.49.032" fill-rule="evenodd" fill="#000"/></svg>