<svg width="18" height="18" fill="none" xmlns="http://www.w3.org/2000/svg"><path d="M8.82 3.016A2105.4 2105.4 0 0 0 .432 6.079a.835.835 0 0 0-.19.138.714.714 0 0 0-.007 1.045c.136.134.234.176 3.425 1.451l3.285 1.313 2.37-2.39 2.37-2.39.533.534.532.535-2.387 2.387-2.387 2.387 1.312 3.282c1.233 3.08 1.321 3.289 1.438 3.406.226.226.565.28.849.136.283-.145.067.411 3.351-8.618C16.588 4.723 17.962.929 17.978.864a.564.564 0 0 0-.005-.279.719.719 0 0 0-.672-.575c-.184-.012-.278.021-8.481 3.006" fill="#fff" fill-rule="evenodd"/></svg>