<svg width="24" height="24" fill="none" xmlns="http://www.w3.org/2000/svg"><path d="M.691 1.639c-.415.098-.598.418-.562.98.022.351.118.524.37.669.157.09.189.092 1.433.104 1.266.012 1.272.013 1.31.1.021.048.345 1.852.719 4.008.788 4.54.85 4.877.963 5.223.356 1.093 1.278 1.851 2.379 1.955.233.022.58.022.889-.002.971-.072 11.27-1.079 11.63-1.136.694-.11 1.129-.299 1.572-.68.306-.264.495-.509.686-.888.268-.535.3-.785.3-2.372 0-1.785-.059-2.126-.472-2.748a2.74 2.74 0 0 0-1.88-1.229c-.448-.077-.606-.083-8.061-.303-3.615-.106-6.58-.2-6.589-.208a24.455 24.455 0 0 1-.195-1.04c-.1-.563-.218-1.122-.263-1.242a1.84 1.84 0 0 0-.896-1.01c-.388-.19-.657-.219-1.984-.215-.671.002-1.278.017-1.349.034M12.86 7.141c3.366.098 6.273.188 6.46.201.665.047.944.194 1.147.609l.113.229v1.4c0 1.387-.001 1.402-.094 1.59a1.08 1.08 0 0 1-.624.532 6.08 6.08 0 0 1-.722.119c-.699.08-10.738 1.047-11.223 1.082-.457.032-.735-.033-.968-.225-.312-.258-.319-.289-.851-3.352a440.65 440.65 0 0 0-.402-2.298l-.023-.113.533.025c.294.013 3.288.104 6.654.201m-5.09 9.057c-.585.158-.961.389-1.405.865a2.41 2.41 0 0 0-.463.673c-.23.48-.281.712-.281 1.264s.051.784.281 1.264c.318.665.98 1.252 1.673 1.484.296.099.378.109.925.109s.629-.01.925-.109c.859-.287 1.579-1.041 1.861-1.948.133-.43.133-1.17 0-1.6a2.863 2.863 0 0 0-.662-1.15c-.352-.377-.773-.657-1.199-.796-.449-.146-1.222-.173-1.655-.056m9.55-.016c-.335.072-.836.321-1.139.567-.482.39-.883 1.027-1.001 1.591a3.9 3.9 0 0 0 0 1.32c.118.564.519 1.201 1.001 1.591.311.252.807.495 1.159.569a3.9 3.9 0 0 0 1.32 0c.798-.167 1.554-.774 1.943-1.56.195-.393.276-.763.276-1.26s-.081-.867-.276-1.26c-.389-.786-1.145-1.393-1.943-1.56a4.099 4.099 0 0 0-1.34.002m-8.331 1.844c.459.217.711.774.573 1.269a1.19 1.19 0 0 1-.571.679c-.731.374-1.601-.173-1.588-.999.01-.63.592-1.14 1.217-1.066.088.01.254.063.369.117m9.387-.059c.108.027.229.112.387.27.248.248.326.429.326.763s-.078.515-.326.763-.429.326-.763.326-.515-.078-.763-.326-.326-.429-.326-.763c0-.274.073-.487.23-.671.34-.397.688-.499 1.235-.362" fill-rule="evenodd" fill="#000"/></svg>