<svg width="16" height="16" fill="none" xmlns="http://www.w3.org/2000/svg"><path d="M6.306.454C3.459.642 1.067 2.776.546 5.594a6.293 6.293 0 0 0 .551 3.952 5.934 5.934 0 0 0 1.268 1.735 6.155 6.155 0 0 0 2.831 1.586c1.77.443 3.59.123 5.106-.898l.239-.161 1.829 1.826c1.587 1.584 1.851 1.836 1.986 1.9.308.147.619.074.927-.219.206-.197.322-.429.322-.647 0-.33.05-.272-1.97-2.297l-1.826-1.829.217-.331a6.224 6.224 0 0 0 .842-1.917c.534-2.149-.055-4.35-1.587-5.929a5.932 5.932 0 0 0-1.738-1.27A6.304 6.304 0 0 0 6.306.454m1.086 1.827c1.015.152 1.849.579 2.581 1.32a4.449 4.449 0 0 1 1.241 2.466 5.055 5.055 0 0 1-.083 1.786 4.554 4.554 0 0 1-2.851 3.142c-.531.191-.95.263-1.533.262a4.115 4.115 0 0 1-1.663-.316 4.183 4.183 0 0 1-1.483-.968c-.902-.89-1.361-1.98-1.361-3.226 0-1.219.457-2.321 1.322-3.185a4.427 4.427 0 0 1 2.465-1.269c.36-.062.997-.068 1.365-.012" fill-rule="evenodd" fill="#000"/></svg>