<svg width="18" height="20" fill="none" xmlns="http://www.w3.org/2000/svg"><path d="M14.715.018c-.643.091-1.078.264-1.542.614-.861.648-1.315 1.786-1.128 2.832.023.131.039.241.036.245-.02.019-7.014 4.091-7.027 4.091-.008 0-.113-.075-.232-.167a3.73 3.73 0 0 0-1.057-.529c-.209-.06-.308-.068-.765-.068-.574 0-.758.034-1.205.224A3.114 3.114 0 0 0 .329 8.64a3.019 3.019 0 0 0 0 2.73c.144.286.324.526.591.784a2.95 2.95 0 0 0 2.86.744 3.587 3.587 0 0 0 1.047-.525c.171-.132.234-.165.27-.142l3.483 2.033a373.197 373.197 0 0 1 3.472 2.038c.028.026.03.061.007.139-.054.18-.07.691-.031.961a3.037 3.037 0 0 0 2.102 2.474c.222.072.318.085.733.097.528.016.769-.013 1.112-.135 1.422-.505 2.258-1.958 1.963-3.408a2.927 2.927 0 0 0-.821-1.536 3.045 3.045 0 0 0-1.389-.8c-.341-.093-1.119-.093-1.463 0-.316.086-.853.354-1.088.544a1.059 1.059 0 0 1-.219.152c-.03 0-6.981-4.033-7.023-4.075-.011-.011-.001-.121.021-.245a2.792 2.792 0 0 0 0-.93c-.022-.124-.032-.233-.021-.244.042-.039 6.949-4.055 6.995-4.067.027-.007.106.034.176.092.778.651 1.892.851 2.872.518a3.026 3.026 0 0 0 1.976-2.314A3.005 3.005 0 0 0 15.618.073c-.214-.045-.744-.078-.903-.055" fill="#fff" fill-rule="evenodd"/></svg>